<svg id="Artwork_9" data-name="Artwork 9" xmlns="http://www.w3.org/2000/svg" xmlns:xlink="http://www.w3.org/1999/xlink" width="141.331" height="15.623" viewBox="0 0 141.331 15.623">
  <defs>
    <clipPath id="clip-path">
      <rect id="Rectangle_3556" data-name="Rectangle 3556" width="141.331" height="15.623" fill="#001021"/>
    </clipPath>
  </defs>
  <g id="Group_10516" data-name="Group 10516" transform="translate(0 0)">
    <path id="Path_47590" data-name="Path 47590" d="M-465.431-920.047l-5.035,6.593-5-6.593h-2.313v15.265h2.135v-12.036l5.179,6.839,5.213-6.839v12.036h2.135v-15.265Z" transform="translate(521.888 920.227)" fill="#001021"/>
    <rect id="Rectangle_3554" data-name="Rectangle 3554" width="2.134" height="15.265" transform="translate(61.97 0.18)" fill="#001021"/>
    <g id="Group_10515" data-name="Group 10515">
      <g id="Group_10514" data-name="Group 10514" clip-path="url(#clip-path)">
        <path id="Path_47591" data-name="Path 47591" d="M-318.746-912.583h3.409a3.707,3.707,0,0,0,2.721-.774,2.806,2.806,0,0,0,.732-2.009q0-2.805-3.543-2.8h-3.32Zm-2.134,7.8v-15.265h5.633a6.192,6.192,0,0,1,4.028,1.2,4.159,4.159,0,0,1,1.47,3.417,4.331,4.331,0,0,1-.978,2.979,4.987,4.987,0,0,1-2.441,1.517l4.056,6.154h-2.515l-3.687-5.811h-3.431v5.811Z" transform="translate(388.184 920.227)" fill="#001021"/>
        <path id="Path_47592" data-name="Path 47592" d="M-226.9-917.388l2.426,6.336h-4.851Zm-1.028-2.659-6.091,15.265h2.291l1.643-4.28h6.371l1.642,4.28h2.291l-6.068-15.265Z" transform="translate(314.16 920.226)" fill="#001021"/>
        <path id="Path_47593" data-name="Path 47593" d="M-115.9-920.047V-907.9l-8.537-12.148h-2.426v15.265h2.135v-12.226l8.6,12.226h2.358v-15.265Z" transform="translate(222.854 920.227)" fill="#001021"/>
        <path id="Path_47594" data-name="Path 47594" d="M-21.689-920.047v1.989h5.118v13.276h2.135v-13.276h5.151v-1.989Z" transform="translate(133.223 920.227)" fill="#001021"/>
        <rect id="Rectangle_3555" data-name="Rectangle 3555" width="2.134" height="15.265" transform="translate(126.392 0.18)" fill="#001021"/>
        <path id="Path_47595" data-name="Path 47595" d="M110.464-916.958a4.075,4.075,0,0,1,1.3-3.047,5.631,5.631,0,0,1,4.033-1.255,8.764,8.764,0,0,1,3.934.929v2.075a6.968,6.968,0,0,0-3.678-1.015q-3.458,0-3.458,2.313a1.341,1.341,0,0,0,.608,1.083,4.8,4.8,0,0,0,1.5.739q.892.277,1.955.717a18.924,18.924,0,0,1,1.957.936,4.144,4.144,0,0,1,1.5,1.455,4.1,4.1,0,0,1,.6,2.234,3.6,3.6,0,0,1-1.466,3.056,6.611,6.611,0,0,1-4.048,1.1,10.3,10.3,0,0,1-4.543-1.093v-2.194a8.257,8.257,0,0,0,4.353,1.3q3.559,0,3.569-2.166a2.251,2.251,0,0,0-.6-1.58,3.465,3.465,0,0,0-1.495-.947l-1.963-.666q-1.07-.372-1.962-.762a3.65,3.65,0,0,1-1.5-1.213,3.277,3.277,0,0,1-.606-2" transform="translate(20.607 921.26)" fill="#001021"/>
        <path id="Path_47596" data-name="Path 47596" d="M-765.845-903.836a15.466,15.466,0,0,1,5.735,3.548c1.524-.852,3.031-1.736,4.538-2.569q.775-.429,1.547-.808c-.518-.456-1.037-.91-1.581-1.33a12.749,12.749,0,0,0-6.975-2.7,18.15,18.15,0,0,0-13.561,5.021,12.955,12.955,0,0,1,10.3-1.158" transform="translate(776.141 909.74)" fill="#001021"/>
        <path id="Path_47597" data-name="Path 47597" d="M-648.086-869.539a10.938,10.938,0,0,1-2.4-1.508c-1.643.912-3.265,1.867-4.886,2.763-.375.207-.75.405-1.124.6a16.254,16.254,0,0,0,1.376.929c6.109,3.66,14.529,1.649,19.482-3.152-3.761,2.313-8.508,2.1-12.446.372" transform="translate(674.185 878.469)" fill="#001021"/>
        <path id="Path_47598" data-name="Path 47598" d="M-727.121-903.832A29.006,29.006,0,0,0-743.3-900c-5.7,3.15-11.42,7.042-17.938,7.136a29.009,29.009,0,0,0,16.181-3.834c5.7-3.15,11.42-7.042,17.938-7.136" transform="translate(763.443 906.444)" fill="#001021"/>
      </g>
    </g>
  </g>
</svg>
