<svg id="Artwork_1" data-name="Artwork 1" xmlns="http://www.w3.org/2000/svg" width="99.723" height="57.197" viewBox="0 0 99.723 57.197">
  <g id="Group_10513" data-name="Group 10513" transform="translate(0 0)">
    <path id="Path_47582" data-name="Path 47582" d="M-1428.4-597.117l-5.165,6.763-5.13-6.763h-2.373v15.658h2.19V-593.8l5.312,7.015,5.347-7.015v12.346h2.19v-15.658Z" transform="translate(1441.063 638.472)" fill="#001021"/>
    <rect id="Rectangle_3552" data-name="Rectangle 3552" width="2.189" height="15.658" transform="translate(18.321 41.356)" fill="#001021"/>
    <g id="Group_10512" data-name="Group 10512" transform="translate(2.356)">
      <path id="Path_47583" data-name="Path 47583" d="M-1268.631-589.329a4.441,4.441,0,0,0,1-3.055,4.265,4.265,0,0,0-1.507-3.505,6.352,6.352,0,0,0-4.132-1.229h-5.778v15.658h2.189v-5.96h3.52l3.782,5.96h2.579l-4.161-6.312a5.115,5.115,0,0,0,2.5-1.556m-4.728-.132h-3.5v-5.731h3.4q3.634,0,3.633,2.877a2.878,2.878,0,0,1-.75,2.061,3.8,3.8,0,0,1-2.791.793" transform="translate(1300.481 638.473)" fill="#001021"/>
      <path id="Path_47584" data-name="Path 47584" d="M-1183.1-597.117l-6.247,15.658h2.35l1.685-4.39h6.534l1.685,4.39h2.35l-6.224-15.658Zm-1.433,9.227,2.487-6.5,2.488,6.5Z" transform="translate(1223.952 638.472)" fill="#001021"/>
      <path id="Path_47585" data-name="Path 47585" d="M-1067.457-584.657l-8.757-12.46h-2.488v15.658h2.19V-594l8.826,12.541h2.418v-15.658h-2.189Z" transform="translate(1129.558 638.473)" fill="#001021"/>
      <path id="Path_47586" data-name="Path 47586" d="M-970.091-595.077h5.25v13.618h2.19v-13.618h5.283v-2.04h-12.723Z" transform="translate(1036.896 638.473)" fill="#001021"/>
      <rect id="Rectangle_3553" data-name="Rectangle 3553" width="2.189" height="15.658" transform="translate(82.045 41.356)" fill="#001021"/>
      <path id="Path_47587" data-name="Path 47587" d="M-823.724-588.9a4.251,4.251,0,0,0-1.538-1.493,19.433,19.433,0,0,0-2.008-.96q-1.09-.452-2.005-.735a4.92,4.92,0,0,1-1.539-.758,1.375,1.375,0,0,1-.623-1.111q0-2.373,3.546-2.373a7.148,7.148,0,0,1,3.772,1.041v-2.129a8.99,8.99,0,0,0-4.036-.953,5.776,5.776,0,0,0-4.136,1.287,4.181,4.181,0,0,0-1.337,3.126,3.362,3.362,0,0,0,.621,2.048,3.745,3.745,0,0,0,1.535,1.244q.915.4,2.012.781l2.014.683a3.554,3.554,0,0,1,1.534.972,2.31,2.31,0,0,1,.617,1.621q-.01,2.222-3.661,2.222a8.469,8.469,0,0,1-4.465-1.331v2.25a10.564,10.564,0,0,0,4.66,1.121,6.782,6.782,0,0,0,4.152-1.129,3.7,3.7,0,0,0,1.5-3.134,4.208,4.208,0,0,0-.62-2.292" transform="translate(920.471 639.541)" fill="#001021"/>
      <path id="Path_47588" data-name="Path 47588" d="M-1399.642-869.3c5.259,1.462,9.111,4.454,12.943,7.595-10.412,5.7-21.124,10.8-32.894,10.963,14.43.7,26.953-2.259,39.885-9.265,14.053-7.615,28.15-17.022,44.217-17.249a71.868,71.868,0,0,0-36.183,7.367c-.893-.76-1.8-1.507-2.729-2.212a31.772,31.772,0,0,0-17.191-6.534,45.246,45.246,0,0,0-33.426,12.134c7.622-4.572,16.933-5.147,25.379-2.8" transform="translate(1425.021 878.74)" fill="#001021"/>
      <path id="Path_47589" data-name="Path 47589" d="M-1107.389-785.815a27.1,27.1,0,0,1-5.92-3.644c-4.047,2.2-8.047,4.513-12.043,6.677q-1.388.752-2.77,1.44a40.441,40.441,0,0,0,3.389,2.245c15.059,8.847,35.814,3.986,48.024-7.618-9.271,5.59-20.973,5.079-30.679.9" transform="translate(1171.72 802.57)" fill="#001021"/>
    </g>
  </g>
</svg>
